<svg xmlns="http://www.w3.org/2000/svg" width="107" height="81" viewBox="0 0 107 81">
	<g fill="none" fill-rule="evenodd">
		<rect width="60" height="60" x="22" y="10" fill="#00BCFD" rx="10"></rect>
		<path fill="#99E4FE" d="M33.2106259,35.4452129 L53.3916906,69.665279 C55.3555572,72.9953138 54.2480591,77.2868688 50.9180244,79.2507355 C49.8407061,79.886077 48.6128384,80.2211742 47.3621292,80.2211742 L7,80.2211742 C3.13400675,80.2211742 8.8817842e-16,77.0871674 0,73.2211742 C0,71.970465 0.335097147,70.7425973 0.970438676,69.665279 L21.1515033,35.4452129 C23.11537,32.1151782 27.406925,31.0076801 30.7369598,32.9715467 C31.7575848,33.5734538 32.6087189,34.4245879 33.2106259,35.4452129 Z" opacity=".8"></path>
		<path fill="#99E4FE" d="M85.2106259,3.44521293 L105.391691,37.665279 C107.355557,40.9953138 106.248059,45.2868688 102.918024,47.2507355 C101.840706,47.886077 100.612838,48.2211742 99.3621292,48.2211742 L59,48.2211742 C55.1340068,48.2211742 52,45.0871674 52,41.2211742 C52,39.970465 52.3350971,38.7425973 52.9704387,37.665279 L73.1515033,3.44521293 C75.11537,0.115178158 79.406925,-0.992319916 82.7369598,0.971546741 C83.7575848,1.57345382 84.6087189,2.42458789 85.2106259,3.44521293 Z" opacity=".8" transform="matrix(1 0 0 -1 0 48.221)"></path>
	</g>
</svg>